<svg xmlns="http://www.w3.org/2000/svg" version="1.1" xmlns:xlink="http://www.w3.org/1999/xlink" xmlns:svgjs="http://svgjs.dev/svgjs" width="1500" height="1500" viewBox="0 0 1500 1500"><rect width="1500" height="1500" fill="#ffffff"></rect><g transform="matrix(0.6666666666666666,0,0,0.6666666666666666,249.39436519522388,583.4571038466984)"><svg viewBox="0 0 396 132" data-background-color="#a1b0f6" preserveAspectRatio="xMidYMid meet" height="500" width="1500" xmlns="http://www.w3.org/2000/svg" xmlns:xlink="http://www.w3.org/1999/xlink"><g id="tight-bounds" transform="matrix(1,0,0,1,0.24008861730862918,-0.04901312329255347)"><svg viewBox="0 0 395.52 132.0980262465851" height="132.0980262465851" width="395.52"><g><svg viewBox="0 0 395.52 132.0980262465851" height="132.0980262465851" width="395.52"><g><svg viewBox="0 0 395.52 132.0980262465851" height="132.0980262465851" width="395.52"><g id="textblocktransform"><svg viewBox="0 0 395.52 132.0980262465851" height="132.0980262465851" width="395.52" id="textblock"><g><svg viewBox="0 0 395.52 98.34458425943502" height="98.34458425943502" width="395.52"><path d="M394.594 21.093C392.735 10.885 387.435 8.047 387.435 8.047 371.165-2.467 350.86-0.201 332.619 1.31 300.414 1.371 268.339 3.617 236.208 4.821 168.767 5.005 100.749 1.983 33.643 9.435 27.339 11.722-6.54 9.885 1.121 22.4 3.129 27.606 10.456 33.384 10.232 38.161 11.236 38.998 12.631 37.079 13.226 38.284 15.309 41.53 18.711 39.998 21.501 41.918 17.614 47.042 20.403 51.309 23.062 55.78 18.377 56.944 12.371 56.393 9.675 60.251 9.396 63.048 7.89 62.518 6.235 62.395 5.026 62.313 2.59 62.62 2.999 63.498 4.394 66.499-1.594 68.234 2.162 71.174-0.422 74.359 3.948 77.115 3.353 80.566 3.278 81.26 3.687 81.852 4.338 82.015 7.22 82.893 3.018 84.608 3.464 86.466 33.029 99.165 65.104 90.386 95.394 96.225 103.259 92.142 97.346 97.674 100.489 96.817 102.943 95.817 104.728 99.961 107.499 97.613 107.927 96.939 107.276 95.347 108.8 95.653 109.6 95.817 110.307 95.776 110.418 94.837 110.586 93.428 109.117 94.306 108.726 93.571 112.947 89.855 111.906 98.695 115.866 98.328 115.68 97.246 114.528 95.694 116.889 95.898 119.232 94.347 119.306 93.06 121.389 96.552 121.463 97.307 121.835 97.838 122.43 98.205 128.938 94.408 135.409 99.553 142.233 97.838 146.417 95.959 150.433 98.859 154.672 98.144 156.16 97.572 157.666 96.552 159.098 98.267 176.632 98.634 195.319 97.103 211.943 98.328 256.364 96.041 303.836 99.267 350.674 96.245 361.719 95.082 373.192 93.428 383.958 92.101 383.958 92.101 392.679 88.467 392.679 72.134S394.538 57.842 394.817 44.837C395.096 31.832 396.398 31.301 394.538 21.093Z" opacity="1" fill="#000000" data-fill-palette-color="tertiary"></path><g transform="matrix(1,0,0,1,55.76832,26.068561146666667)"><svg width="283.98335999999995" viewBox="2.05 -35.5 221.22 36" height="46.20746196610169" data-palette-color="#a1b0f6"><path d="M2.05 0L2.05-35 10.35-35Q14.6-35 16.55-33.02 18.5-31.05 18.5-26.95L18.5-26.95 18.5-25.55Q18.5-22.85 17.63-21.15 16.75-19.45 14.95-18.7L14.95-18.7 14.95-18.6Q19.05-17.2 19.05-11.3L19.05-11.3 19.05-8.3Q19.05-4.25 16.93-2.13 14.8 0 10.7 0L10.7 0 2.05 0ZM7.55-20.75L9.7-20.75Q11.35-20.75 12.18-21.6 13-22.45 13-24.45L13-24.45 13-26.4Q13-28.3 12.33-29.15 11.65-30 10.2-30L10.2-30 7.55-30 7.55-20.75ZM7.55-5L10.7-5Q12.15-5 12.85-5.78 13.55-6.55 13.55-8.45L13.55-8.45 13.55-11.5Q13.55-13.9 12.73-14.83 11.9-15.75 10-15.75L10-15.75 7.55-15.75 7.55-5ZM30.25 0.5Q26.25 0.5 24.15-1.78 22.05-4.05 22.05-8.3L22.05-8.3 22.05-35 27.55-35 27.55-7.9Q27.55-6.1 28.27-5.3 29-4.5 30.35-4.5L30.35-4.5Q31.7-4.5 32.42-5.3 33.15-6.1 33.15-7.9L33.15-7.9 33.15-35 38.45-35 38.45-8.3Q38.45-4.05 36.35-1.78 34.25 0.5 30.25 0.5L30.25 0.5ZM49.5 0.5Q45.5 0.5 43.45-1.78 41.4-4.05 41.4-8.3L41.4-8.3 41.4-10.3 46.59-10.3 46.59-7.9Q46.59-4.5 49.45-4.5L49.45-4.5Q50.84-4.5 51.57-5.33 52.3-6.15 52.3-8L52.3-8Q52.3-10.2 51.3-11.88 50.3-13.55 47.59-15.9L47.59-15.9Q44.2-18.9 42.84-21.33 41.5-23.75 41.5-26.8L41.5-26.8Q41.5-30.95 43.59-33.23 45.7-35.5 49.7-35.5L49.7-35.5Q53.65-35.5 55.67-33.23 57.7-30.95 57.7-26.7L57.7-26.7 57.7-25.25 52.5-25.25 52.5-27.05Q52.5-28.85 51.8-29.68 51.09-30.5 49.75-30.5L49.75-30.5Q47-30.5 47-27.15L47-27.15Q47-25.25 48.02-23.6 49.05-21.95 51.75-19.6L51.75-19.6Q55.2-16.6 56.5-14.15 57.8-11.7 57.8-8.4L57.8-8.4Q57.8-4.1 55.67-1.8 53.55 0.5 49.5 0.5L49.5 0.5ZM60.94 0L60.94-35 66.44-35 66.44 0 60.94 0ZM70.54 0L70.54-35 77.44-35 82.79-14.05 82.89-14.05 82.89-35 87.79-35 87.79 0 82.14 0 75.54-25.55 75.44-25.55 75.44 0 70.54 0ZM91.89 0L91.89-35 106.89-35 106.89-30 97.39-30 97.39-20.75 104.94-20.75 104.94-15.75 97.39-15.75 97.39-5 106.89-5 106.89 0 91.89 0ZM117.29 0.5Q113.29 0.5 111.24-1.78 109.19-4.05 109.19-8.3L109.19-8.3 109.19-10.3 114.39-10.3 114.39-7.9Q114.39-4.5 117.24-4.5L117.24-4.5Q118.64-4.5 119.36-5.33 120.09-6.15 120.09-8L120.09-8Q120.09-10.2 119.09-11.88 118.09-13.55 115.39-15.9L115.39-15.9Q111.99-18.9 110.64-21.33 109.29-23.75 109.29-26.8L109.29-26.8Q109.29-30.95 111.39-33.23 113.49-35.5 117.49-35.5L117.49-35.5Q121.44-35.5 123.46-33.23 125.49-30.95 125.49-26.7L125.49-26.7 125.49-25.25 120.29-25.25 120.29-27.05Q120.29-28.85 119.59-29.68 118.89-30.5 117.54-30.5L117.54-30.5Q114.79-30.5 114.79-27.15L114.79-27.15Q114.79-25.25 115.81-23.6 116.84-21.95 119.54-19.6L119.54-19.6Q122.99-16.6 124.29-14.15 125.59-11.7 125.59-8.4L125.59-8.4Q125.59-4.1 123.46-1.8 121.34 0.5 117.29 0.5L117.29 0.5ZM135.88 0.5Q131.88 0.5 129.83-1.78 127.78-4.05 127.78-8.3L127.78-8.3 127.78-10.3 132.98-10.3 132.98-7.9Q132.98-4.5 135.83-4.5L135.83-4.5Q137.23-4.5 137.96-5.33 138.68-6.15 138.68-8L138.68-8Q138.68-10.2 137.68-11.88 136.68-13.55 133.98-15.9L133.98-15.9Q130.58-18.9 129.23-21.33 127.88-23.75 127.88-26.8L127.88-26.8Q127.88-30.95 129.98-33.23 132.08-35.5 136.08-35.5L136.08-35.5Q140.03-35.5 142.06-33.23 144.08-30.95 144.08-26.7L144.08-26.7 144.08-25.25 138.88-25.25 138.88-27.05Q138.88-28.85 138.18-29.68 137.48-30.5 136.13-30.5L136.13-30.5Q133.38-30.5 133.38-27.15L133.38-27.15Q133.38-25.25 134.41-23.6 135.43-21.95 138.13-19.6L138.13-19.6Q141.58-16.6 142.88-14.15 144.18-11.7 144.18-8.4L144.18-8.4Q144.18-4.1 142.06-1.8 139.93 0.5 135.88 0.5L135.88 0.5ZM155.08 0.5Q151.13 0.5 149.06-1.75 146.98-4 146.98-8.1L146.98-8.1 146.98-26.9Q146.98-31 149.06-33.25 151.13-35.5 155.08-35.5L155.08-35.5Q159.03-35.5 161.1-33.25 163.18-31 163.18-26.9L163.18-26.9 163.18-23.2 157.98-23.2 157.98-27.25Q157.98-30.5 155.23-30.5L155.23-30.5Q152.48-30.5 152.48-27.25L152.48-27.25 152.48-7.7Q152.48-4.5 155.23-4.5L155.23-4.5Q157.98-4.5 157.98-7.7L157.98-7.7 157.98-13.05 163.18-13.05 163.18-8.1Q163.18-4 161.1-1.75 159.03 0.5 155.08 0.5L155.08 0.5ZM165.03 0L170.73-35 178.18-35 183.88 0 178.38 0 177.38-6.95 177.38-6.85 171.13-6.85 170.13 0 165.03 0ZM171.78-11.6L176.73-11.6 174.28-28.9 174.18-28.9 171.78-11.6ZM186.53 0L186.53-35 194.68-35Q198.93-35 200.88-33.02 202.83-31.05 202.83-26.95L202.83-26.95 202.83-24.8Q202.83-19.35 199.23-17.9L199.23-17.9 199.23-17.8Q201.23-17.2 202.05-15.35 202.88-13.5 202.88-10.4L202.88-10.4 202.88-4.25Q202.88-2.75 202.98-1.83 203.08-0.9 203.48 0L203.48 0 197.88 0Q197.58-0.85 197.48-1.6 197.38-2.35 197.38-4.3L197.38-4.3 197.38-10.7Q197.38-13.1 196.6-14.05 195.83-15 193.93-15L193.93-15 192.03-15 192.03 0 186.53 0ZM192.03-20L194.03-20Q195.68-20 196.5-20.85 197.33-21.7 197.33-23.7L197.33-23.7 197.33-26.4Q197.33-28.3 196.65-29.15 195.98-30 194.53-30L194.53-30 192.03-30 192.03-20ZM206.67 0L206.67-35 215.07-35Q219.17-35 221.22-32.8 223.27-30.6 223.27-26.35L223.27-26.35 223.27-8.65Q223.27-4.4 221.22-2.2 219.17 0 215.07 0L215.07 0 206.67 0ZM212.17-5L214.97-5Q216.32-5 217.05-5.8 217.77-6.6 217.77-8.4L217.77-8.4 217.77-26.6Q217.77-28.4 217.05-29.2 216.32-30 214.97-30L214.97-30 212.17-30 212.17-5Z" opacity="1" transform="matrix(1,0,0,1,0,0)" fill="#ffffff" class="wordmark-text-0" data-fill-palette-color="quaternary" id="text-0"></path></svg></g></svg></g><g transform="matrix(1,0,0,1,117.40530400175257,109.25305705054444)"><svg viewBox="0 0 160.70939199649484 22.844969196040676" height="22.844969196040676" width="160.70939199649484"><g transform="matrix(1,0,0,1,0,0)"><svg width="160.70939199649484" viewBox="5 -28.75 202.24 28.75" height="22.844969196040676" data-palette-color="#223fc0"><path d="M5-28.75L5-28.75 10.7-28.75 21-19.05 21-11.5 11.3-20.65 11.3 0 5 0 5-28.75ZM39.45-28.75L39.45-28.75 33.8-28.75 23.45-19.05 23.45-11.5 33.15-20.65 33.15 0 39.45 0 39.45-28.75ZM48.45-25.3L48.45-25.3 54.15-28.75 64.45-28.75 64.45-23.1 54.75-23.1 54.75-17.2 64.45-17.2 64.45-11.5 54.75-11.5 54.75 0 48.45 0 48.45-25.3ZM82.9-25.3L82.9-25.3 77-28.75 66.7-28.75 66.7-23.1 76.6-23.1 76.6-17.2 66.7-17.2 66.7-11.5 76.6-11.5 76.6 0 82.9 0 82.9-25.3ZM91.9 0L91.9-28.75 98.2-28.75 98.2-17.2 101-17.2 101-11.5 98.2-11.5 98.2 0 91.9 0ZM126.35-2.85L107.9-14.35 126.35-25.9 120.45-28.75 102.85-17.2 102.85-11.5 120.45 0 126.35-2.85ZM131.84-28.75L131.84-28.75 147.84-28.75 147.84-22.85 138.14-22.85 138.14-17.2 147.84-17.2 147.84-11.5 138.14-11.5 138.14-5.65 147.64-5.65 147.64 0 131.84 0 131.84-28.75ZM150.29-5.65L150.29-5.65 150.29 0 166.29 0 166.29-5.65 150.29-5.65ZM166.29-22.85L166.29-22.85 166.29-28.75 150.09-28.75 150.09-22.85 166.29-22.85ZM158.19-11.5L158.19-11.5 158.19-17.2 150.09-17.2 150.09-11.5 158.19-11.5ZM172.79-28.75L172.79-28.75 188.79-28.75 188.79-22.85 179.09-22.85 179.09-17.2 188.79-17.2 188.79-11.35 179.09-11.35 179.09 0 172.79 0 172.79-28.75ZM207.24 0L207.24 0 207.24-11.9 202.54-14.35 207.24-16.6 207.24-25.3 201.34-28.75 191.04-28.75 191.04-22.85 200.94-22.85 200.94-17.2 191.04-17.2 191.04-11.35 200.94-11.35 200.94 0 207.24 0Z" opacity="1" transform="matrix(1,0,0,1,0,0)" fill="#000000" class="slogan-text-1" data-fill-palette-color="secondary" id="text-1"></path></svg></g></svg></g></svg></g></svg></g><g></g></svg></g><defs></defs></svg><rect width="395.52" height="132.0980262465851" fill="none" stroke="none" visibility="hidden"></rect></g></svg></g></svg>